<svg id="Layer_1" data-name="Layer 1" xmlns="http://www.w3.org/2000/svg" viewBox="0 0 279.58 70.49"><defs><style>.cls-1{fill:#af593f;}.cls-2{fill:#27b575;}.cls-3,.cls-70{fill:#46bfd8;}.cls-4{fill:#159b63;}.cls-5{fill:#73cade;}.cls-6{fill:#82cee1;}.cls-7{fill:#7d402d;}.cls-8{fill:#4957a6;}.cls-9{fill:#fcb42d;}.cls-10{fill:#3d4a9f;}.cls-11{fill:#dc7f27;}.cls-12{fill:#fec151;}.cls-13{fill:#964d36;}.cls-14{fill:#47bfd7;}.cls-15{fill:#7ed1e2;}.cls-16{fill:#fef4f5;}.cls-17{fill:#3e4a9f;}.cls-18{fill:#ffde91;}.cls-19{fill:#da7e28;}.cls-20{fill:#f99f27;}.cls-21{fill:#f89e28;}.cls-22{fill:#f89f27;}.cls-23{fill:#169b64;}.cls-24{fill:#8fcd9e;}.cls-25{fill:#7ed0e2;}.cls-26{fill:#d47f6c;}.cls-27{fill:#fbf2b6;}.cls-28{fill:#8d94ca;}.cls-29{fill:#fabdab;}.cls-30{fill:#fba91a;}.cls-31{fill:#fabeac;}.cls-32{fill:#fbccbf;}.cls-33{fill:#fccdbf;}.cls-34{fill:#ffdd8f;}.cls-35{fill:#e09380;}.cls-36{fill:#2c3378;}.cls-37{fill:#2b3c93;}.cls-38{fill:#e4554f;}.cls-39{fill:#f8a68f;}.cls-40{fill:#7d402e;}.cls-41{fill:#fedc90;}.cls-42{fill:#7ed0e1;}.cls-43{fill:#d47f6d;}.cls-44{fill:#f8a78f;}.cls-45{fill:#d3d4d8;}.cls-46{fill:#fadc91;}.cls-47{fill:#2d3479;}.cls-48{fill:#3e4b9f;}.cls-49{fill:#d7302f;}.cls-50{fill:#fec254;}.cls-51{fill:#fec253;}.cls-52{fill:#e7cd92;}.cls-53{fill:#2f3579;}.cls-54{fill:#2e3579;}.cls-55{fill:#f8a790;}.cls-56{fill:#f5ecef;}.cls-57{fill:#f3ebef;}.cls-58{fill:#b3715c;}.cls-59{fill:#2e3479;}.cls-60{fill:#b4725d;}.cls-61{fill:#f0e6ea;}.cls-62{fill:#f5ecee;}.cls-63{fill:#d4806d;}.cls-64{fill:#503024;}.cls-65{fill:#502f24;}.cls-66{fill:#d5806d;}.cls-67{fill:#f4e9e8;}.cls-68{fill:#f8eeed;}.cls-69{fill:#e09280;}.cls-70{font-size:46.79px;font-family:Arial-BoldMT, Arial;font-weight:700;}</style></defs><path class="cls-1" d="M82.88,51.35a1.68,1.68,0,0,1-1.76,1,.62.62,0,0,0-.57.13,2.28,2.28,0,0,1-.82.09H15.57a2.28,2.28,0,0,1-.82-.09c-.16-.17-.37-.13-.57-.14-1,0-1.52-.32-1.71-1s.1-1.2.9-1.72c.24-.27.58-.23.89-.23h2.66c.61,0,1.21,0,1.82,0h1.8c.56,0,1.12,0,1.69,0,1.55,0,3.1,0,4.65,0q4,0,8.08,0c1.27,0,2.54,0,3.82,0h.65c.94,0,1.89,0,2.84,0,.56,0,1.13,0,1.69,0,1.56,0,3.11,0,4.66,0q4.58,0,9.15,0c.77,0,1.54,0,2.31,0,.37,0,.74,0,1.11,0a37.25,37.25,0,0,0,3.81,0c1.14.09,2.28,0,3.42,0,.57,0,1.13,0,1.69,0,1.55,0,3.09,0,4.64,0,1.89,0,3.78,0,5.67,0h1a1.43,1.43,0,0,1,1.48,1.16Z" transform="translate(-12.42 -4.71)"/><path class="cls-2" d="M56.32,4.71c.39.34.85.65.84,1.26a7.2,7.2,0,0,1,.06,3.45,1.32,1.32,0,0,1-1.34,1c-.41,0-.83,0-1.24,0-1.94,0-3.89,0-5.84,0-.89-.08-1.78,0-2.68-.05a24.2,24.2,0,0,1-3.07-.06,1.62,1.62,0,0,1-1.25-1.8c0-.73,0-1.46,0-2.19C41.82,5.28,42,5,43,4.71Z" transform="translate(-12.42 -4.71)"/><path class="cls-3" d="M81.53,49.54h-1a1.36,1.36,0,0,1-.19-1c0-2.41,0-4.82,0-7.22A4.57,4.57,0,0,0,78.16,37a.92.92,0,0,1-.34-.34c-.25-1-.33-2-.54-2.94a.54.54,0,0,1,.08-.46c.7-.13.83-.6.79-1.24a7.87,7.87,0,0,1,0-1.68,3,3,0,0,0,0-3.38c-.09-1.2,0-2.4,0-3.6a.72.72,0,0,1,.24-.67,34.64,34.64,0,0,1,4.26,13,3.16,3.16,0,0,0,.25,1.45v.69a1.33,1.33,0,0,0,0,1v1.65a2.18,2.18,0,0,0,0,1.24V43a33.13,33.13,0,0,1-.83,5.43C81.94,48.8,81.94,49.27,81.53,49.54Z" transform="translate(-12.42 -4.71)"/><path class="cls-4" d="M43,4.71A1.67,1.67,0,0,0,42,6.6a9.43,9.43,0,0,1,0,1.84,1.55,1.55,0,0,0,1,1.75c-.37.36-.85.2-1.28.23s-.67,0-1,0-.78,0-1.17,0a1.41,1.41,0,0,1-1.4-1,6.72,6.72,0,0,1,0-3.39,1.65,1.65,0,0,1,1-1.26Z" transform="translate(-12.42 -4.71)"/><path class="cls-5" d="M82.88,41.72a1.22,1.22,0,0,1,0-1.24Z" transform="translate(-12.42 -4.71)"/><path class="cls-6" d="M82.88,38.83a.78.78,0,0,1,0-1Z" transform="translate(-12.42 -4.71)"/><path class="cls-7" d="M14.75,52.45c.2-.22.47-.13.71-.13H79.83c.25,0,.52-.09.72.13a30.22,30.22,0,0,1-4,7.57A34.87,34.87,0,0,1,54.24,74.55,35.32,35.32,0,0,1,14.81,52.72,2.14,2.14,0,0,1,14.75,52.45Z" transform="translate(-12.42 -4.71)"/><path class="cls-8" d="M24.27,13.53l-5.29,0a1.23,1.23,0,0,1-.8-.11c.28-.28.64-.19,1-.2h2A8.07,8.07,0,0,1,20.86,9a1.11,1.11,0,0,1,.92-1c2.38-.13,4.75,0,7.13-.06,1.42,0,2.84.09,4.25-.07a1.7,1.7,0,0,1,.72-.18c1.72-.11,2.53.51,2.55,2.13,0,.61,0,1.22,0,1.84-.06,1.43-.67,2-2.09,2-.44,0-.87.05-1.3.05-.88-.07-1.76,0-2.64,0-1.81,0-3.61,0-5.41,0A1,1,0,0,1,24.27,13.53Z" transform="translate(-12.42 -4.71)"/><path class="cls-3" d="M13.52,48.62a35.35,35.35,0,0,1-1-6.22,34.61,34.61,0,0,1,1.94-14.31,29.88,29.88,0,0,1,2.46-5.36.72.72,0,0,1,.24.67c0,1.19,0,2.37,0,3.55A4,4,0,0,0,16.58,29,1.4,1.4,0,0,0,18,30.39a.94.94,0,0,1,.54.15.62.62,0,0,1,.14.32c-.14,1.23-.59,2.4-.8,3.62a.52.52,0,0,1-.25.32,2.46,2.46,0,0,1-1.75-.06,2,2,0,0,1-.26-.63.44.44,0,0,0-.4-.32.45.45,0,0,0-.42.39,3.31,3.31,0,0,0-.06.89V47.48a1.94,1.94,0,0,1-.17,1.14A.84.84,0,0,1,13.52,48.62Z" transform="translate(-12.42 -4.71)"/><path class="cls-9" d="M17,27.12l-.05-4.39A6.2,6.2,0,0,1,21,17a2.38,2.38,0,0,1,1.47-.48,17.94,17.94,0,0,1,2.2,0,1.47,1.47,0,0,1,1.36.77.69.69,0,0,1-.13.52,3.62,3.62,0,0,0-.27,3,1.16,1.16,0,0,1,.05.8,5.22,5.22,0,0,1-4.32,2.31c-.41,0-.82,0-1.23,0H20c-1.73,0-1.58-.36-1.82,1.78a5.55,5.55,0,0,1-.08,1.08.49.49,0,0,1-.14.18C17.61,27,17.32,27.23,17,27.12Z" transform="translate(-12.42 -4.71)"/><path class="cls-3" d="M25.93,17.33a1.7,1.7,0,0,0-1.44-.65A11.4,11.4,0,0,0,21,17a47,47,0,0,1,3.32-3.45h6.14c.36.27.35.66.38,1-.14.41-.53.54-.84.76-.64.47-1.21,1-1.87,1.46a4.05,4.05,0,0,0-1.76.53A.33.33,0,0,1,25.93,17.33Z" transform="translate(-12.42 -4.71)"/><path class="cls-10" d="M21.78,8A1.84,1.84,0,0,0,21,9.77c0,.53,0,1.06,0,1.58a2.53,2.53,0,0,0,.57,2H18.18a1.18,1.18,0,0,1-1-1.2,29,29,0,0,1,0-2.95A1.28,1.28,0,0,1,18.48,8C19.58,8,20.68,8,21.78,8Z" transform="translate(-12.42 -4.71)"/><path class="cls-3" d="M36.24,11.72c0-.68,0-1.37,0-2.05a1.55,1.55,0,0,0-1.7-1.76c-.45,0-.9,0-1.36,0a24.1,24.1,0,0,1,4.2-1.65L38.14,6c0,.84,0,1.68,0,2.52,0,1.23.49,1.71,1.73,1.72l.75,0c0,.25-.22.28-.38.32a33.12,33.12,0,0,0-3.62,1.16A.44.44,0,0,1,36.24,11.72Z" transform="translate(-12.42 -4.71)"/><path class="cls-11" d="M13.52,48.62a2.61,2.61,0,0,1,.92-.07,2.74,2.74,0,0,1,1.36-.14,2.74,2.74,0,0,1,.81.05c.55.15.69.54.41,1.08l-3.65,0C13.12,49.21,13.31,48.91,13.52,48.62Z" transform="translate(-12.42 -4.71)"/><path class="cls-12" d="M63,8.26l13.89,0c1.63,0,2,.43,2,2.09,0,.57,0,1.14,0,1.71,0,1.26-.53,1.73-1.78,1.74H72.11c-.25,0-.5,0-.75,0a.88.88,0,0,1-.52.13c-1.92,0-3.84,0-5.75,0a1.63,1.63,0,0,1-1.53-1.79c0-.75,0-1.51,0-2.26A1.87,1.87,0,0,1,64,8.63c-.81,0-1.52,0-2.22,0-.29,0-.61,0-.83-.23.17-.38.52-.29.81-.31A4.13,4.13,0,0,1,63,8.26Z" transform="translate(-12.42 -4.71)"/><path class="cls-13" d="M78.37,22.72l-.05,4.41a1.26,1.26,0,0,1-1-.3,6.1,6.1,0,0,1-.13-1.76c-.11-1.1-.19-1.19-1.29-1.18a5.39,5.39,0,0,1-4.06-1.25,13.85,13.85,0,0,1-.94-1.09,6.66,6.66,0,0,1-.44-2.07,3,3,0,0,1,.8-2.2,2.53,2.53,0,0,1,3-.52,5.17,5.17,0,0,1,4.15,5.35C78.34,22.32,78.36,22.52,78.37,22.72Z" transform="translate(-12.42 -4.71)"/><path class="cls-14" d="M74.19,16.76a3.58,3.58,0,0,0-2.84.56,7.37,7.37,0,0,0-3.89-.4,30.87,30.87,0,0,1-2.93-2.3A.85.85,0,0,1,65,13.8l5.51,0c.27,0,.54,0,.81,0C72.3,14.84,73.25,15.8,74.19,16.76Z" transform="translate(-12.42 -4.71)"/><path class="cls-3" d="M63,8.26A13,13,0,0,0,61,8.39a2.47,2.47,0,0,0-.89,2.46A2,2,0,0,1,60,12c-.21.19-.43.08-.64,0a31,31,0,0,0-4.14-1.39c-.2-.05-.47-.05-.51-.36l1.17,0a1.26,1.26,0,0,0,1.3-1.29c0-1,0-2,0-2.95A37.11,37.11,0,0,1,63,8.26Z" transform="translate(-12.42 -4.71)"/><path class="cls-15" d="M54.67,10.23A43.77,43.77,0,0,1,59.88,12c.28,1.07.83,1.78,2.08,1.65.34,0,.48.31.57.6.12.44.21.89.37,1.32.07.21.09.49.37.51s.31-.23.44-.39c.29-.35.35-.91.88-1.07a14.53,14.53,0,0,1,2.73,2.15c-.12.26-.39.28-.62.36a5.87,5.87,0,0,0-4.14,5.68c0,1.44.06,2.87-.05,4.31a2.79,2.79,0,0,0,0,3.26c.1.91,0,1.83.07,2.74,0,.2.15.37.1.58A10.33,10.33,0,0,0,62.57,36a2.29,2.29,0,0,1-.13,1.07.66.66,0,0,1-.14.15,5.18,5.18,0,0,0-1.93,4.54c0,2.29,0,4.57,0,6.86a1.57,1.57,0,0,1-.14.93H57.82c-.25-.29-.18-.65-.19-1,0-2.49,0-5,0-7.47a4.37,4.37,0,0,0-1.82-3.79,3.92,3.92,0,0,0-2.24-.74,3.09,3.09,0,0,1-1.35-.13,1,1,0,0,0-1.11-.57,4.78,4.78,0,0,1-1.36-.05.5.5,0,0,1-.19-.1c-.23-.73-.16-.94.51-1.23A7,7,0,0,0,53.81,31a.84.84,0,0,1,.45-.49c1.69-.28,2.25-1.47,1.4-3a1.24,1.24,0,0,1-.17-.37c-.11-1.71,0-3.42-.05-5.13a5,5,0,0,0-4.27-5,2.68,2.68,0,0,0-1.92.29,1,1,0,0,1-.64.2,6.08,6.08,0,0,0-8.75,5.26c0,1.47,0,2.93,0,4.4A3.07,3.07,0,0,0,39.29,29a1.36,1.36,0,0,0,1.36,1.39,1.16,1.16,0,0,1,.52.11.94.94,0,0,1,.28.38,6.88,6.88,0,0,0,3.82,3.54c.72.28.82.76.33,1.37a7,7,0,0,1-2.33,0,3.58,3.58,0,0,0-3-.88c-.66,0-1.32,0-2,0a1,1,0,0,1-.77-.2,2.32,2.32,0,0,1-.22-.57c-.08-.2-.21-.37-.46-.33a.45.45,0,0,0-.38.42,3.77,3.77,0,0,0-.05.89V47.52c0,.51,0,1-.65,1.19-.24,0-.48.18-.71,0a1.74,1.74,0,0,1-.15-1c0-2.23,0-4.45,0-6.67a4.43,4.43,0,0,0-2.16-4,5.94,5.94,0,0,0-2.44-.64,2.25,2.25,0,0,1-.81-.12,1.26,1.26,0,0,0-1.14-.45A5.1,5.1,0,0,1,27,35.8a.52.52,0,0,1-.19-.11c-.23-.81-.16-1,.55-1.27A6.67,6.67,0,0,0,31,31.14c.13-.26.23-.55.54-.68,1.7-.29,2.24-1.39,1.42-2.94a2.08,2.08,0,0,1-.19-.43c-.1-1.69,0-3.38-.05-5.08a5,5,0,0,0-4-5,1,1,0,0,1-.65-.33,16.34,16.34,0,0,1,2.57-2c.33.13.3.47.41.73s.11.37.34.38.27-.14.36-.27c.34-.51.62-1.06,1-1.56a.57.57,0,0,1,.31-.26,2.18,2.18,0,0,1,1.26-.12c1.35,0,1.81-.44,1.92-1.8a29.47,29.47,0,0,1,4.39-1.49l2.33,0,3.14,0c.44.43.39,1,.6,1.56.1.24.07.62.37.67s.45-.32.62-.55c.38-.49.53-1.15,1.08-1.54a.69.69,0,0,1,.5-.15Z" transform="translate(-12.42 -4.71)"/><path class="cls-8" d="M77.92,36.64a4.87,4.87,0,0,1,2.63,4.8c-.07,2.7,0,5.4,0,8.1H74.79a4,4,0,0,1-.53-1.82C74,46.62,74,46.6,72.86,46.6H69.64c-.42,0-.54.28-.61.6-.13.56-.22,1.12-.35,1.68-.05.24-.05.51-.28.67h-3c-.17,0-.37.07-.5-.13a1.31,1.31,0,0,0-.94-.8.47.47,0,0,1-.4-.33A25.66,25.66,0,0,1,63.53,45c0-1,0-2.09,0-3.14A1.41,1.41,0,0,1,63.7,41a7.19,7.19,0,0,1,3.13-.13c.08,0,0,0,.06,0,1.06,1.22,2.49,1,3.87,1,.47,0,.63-.22.64-.67a19.09,19.09,0,0,1,.07-2.93,3,3,0,0,0,.64-1.75.54.54,0,0,1,.24-.47,15.53,15.53,0,0,1,5,.13A1,1,0,0,1,77.92,36.64Z" transform="translate(-12.42 -4.71)"/><path class="cls-2" d="M29.46,36.23a8.2,8.2,0,0,1,2.7.32,4.52,4.52,0,0,1,3,4.29c0,2.63,0,5.26,0,7.89a1,1,0,0,1-.12.83l-8.14,0a4.45,4.45,0,0,1-.57-1.94c-.22-1-.25-1-1.21-1H21.75c-.42,0-.54.27-.6.6-.09.56-.22,1.12-.32,1.68a1,1,0,0,1-.3.66H18.76a1,1,0,0,1-.22-.77c0-2.33,0-4.67,0-7a1.4,1.4,0,0,1,.12-.67.38.38,0,0,1,.45-.15c1.08,1.35,2.59,1,4,1,.33,0,.39-.25.4-.53A6.89,6.89,0,0,1,23.58,40a4.08,4.08,0,0,1,.85-1.29,1.57,1.57,0,0,1,1,0A4.18,4.18,0,0,1,26.27,40c.32.52.42.53.73,0,.65-1.07,1.26-2.17,1.9-3.24C29,36.54,29.12,36.25,29.46,36.23Z" transform="translate(-12.42 -4.71)"/><path class="cls-16" d="M52.19,36.32a12.09,12.09,0,0,1,2.25.12,4.46,4.46,0,0,1,3.38,4.44c0,2.89,0,5.77,0,8.66H48.64a.74.74,0,0,1-.18-.72,2.09,2.09,0,0,0,.08-.34c0-2.3.1-4.61-.09-6.91a6.26,6.26,0,0,1,.18-1.36c.09-.21.24-.21.37-.06.38.42.57.14.76-.18.57-1,1.14-1.94,1.7-2.91C51.64,36.76,51.74,36.36,52.19,36.32Z" transform="translate(-12.42 -4.71)"/><path class="cls-16" d="M42.25,49.54H39.4a.86.86,0,0,1-.22-.63c0-2.48,0-5,0-7.45a1.76,1.76,0,0,1,.07-.33c.5-.54,1-.57,1.7-.1a2.45,2.45,0,0,0,2.23.91c.12,0,.23,0,.35,0,.49,0,1.05.16,1.47-.08s.1-.94.32-1.39a5,5,0,0,1,1.18,0,2.63,2.63,0,0,1,.18,1.14c-.14,1.28,0,2.57-.07,3.85a1.73,1.73,0,0,1-.17,1c-.55.33-1.16.15-1.74.19-.38,0-.77,0-1.16,0s-.59.24-.67.6c-.11.53-.21,1.07-.33,1.6C42.49,49.07,42.5,49.36,42.25,49.54Z" transform="translate(-12.42 -4.71)"/><path class="cls-17" d="M60.23,49.54c0-3.1-.11-6.21.07-9.32A3.84,3.84,0,0,1,62.35,37a.89.89,0,0,1,.24.76q0,5,0,10a1.49,1.49,0,0,1-.07.47.44.44,0,0,1-.37.34,1.31,1.31,0,0,0-1,.81C60.88,49.7,60.55,49.52,60.23,49.54Z" transform="translate(-12.42 -4.71)"/><path class="cls-4" d="M18.75,41v8.51H17c.13-.82,0-1-1.13-1a1,1,0,0,1-.24-.83c0-2,0-4,0-5.93a1.29,1.29,0,0,1,.17-.79A4.4,4.4,0,0,1,18.75,41Z" transform="translate(-12.42 -4.71)"/><path class="cls-12" d="M69.53,46.42c1.37,0,2.74,0,4.11,0a.59.59,0,0,1,.67.54l.48,2.62h-4.7A6.42,6.42,0,0,1,69.53,46.42Z" transform="translate(-12.42 -4.71)"/><path class="cls-12" d="M43.38,46.42l3.07,0c1.13-.47,1.75-.17,2,1a6.06,6.06,0,0,1,.16,1.54l0,.65H44A6.82,6.82,0,0,1,43.38,46.42Z" transform="translate(-12.42 -4.71)"/><path class="cls-12" d="M21.64,46.42c1.37,0,2.74,0,4.1,0a.59.59,0,0,1,.66.54c.16.87.32,1.74.49,2.61H22.21A6.43,6.43,0,0,1,21.64,46.42Z" transform="translate(-12.42 -4.71)"/><path class="cls-18" d="M39.39,41c0,2.84,0,5.68,0,8.52l-.57,0c-.2-.35-.3-.79-.78-.89a.68.68,0,0,1-.64-.76c0-2.12,0-4.25,0-6.37a.94.94,0,0,1,.16-.52A2,2,0,0,1,39.39,41Z" transform="translate(-12.42 -4.71)"/><path class="cls-19" d="M61.17,49.42c0-.77.09-.83,1.2-1a4,4,0,0,1,1.38,0c1.14.15,1.2.2,1.2,1A10.67,10.67,0,0,1,61.17,49.42Z" transform="translate(-12.42 -4.71)"/><path class="cls-20" d="M43.38,46.42A25.53,25.53,0,0,1,44,49.54h-1.7c.16-.87.31-1.74.48-2.6C42.8,46.6,43,46.33,43.38,46.42Z" transform="translate(-12.42 -4.71)"/><path class="cls-21" d="M69.53,46.42c.19,1,.37,2.08.56,3.12H68.4c.15-.87.3-1.75.47-2.62C68.94,46.6,69.1,46.32,69.53,46.42Z" transform="translate(-12.42 -4.71)"/><path class="cls-11" d="M38.3,48.58c.58.11.55.55.53,1H35a1.1,1.1,0,0,1,.12-.83.71.71,0,0,1,.52-.16A5.44,5.44,0,0,1,38.3,48.58Z" transform="translate(-12.42 -4.71)"/><path class="cls-22" d="M21.64,46.42c.2,1,.47,2.06.57,3.12H20.53c.15-.86.3-1.73.47-2.6C21.07,46.61,21.21,46.33,21.64,46.42Z" transform="translate(-12.42 -4.71)"/><path class="cls-23" d="M48.77,10.36c-.39.67-.78,1.35-1.18,2-.12.2-.25.43-.52.39s-.36-.3-.42-.55c-.18-.67-.37-1.33-.55-2A8.85,8.85,0,0,1,48.77,10.36Z" transform="translate(-12.42 -4.71)"/><path class="cls-24" d="M50.36,8.14c-.41-.08-.67-.31-.63-.75a.67.67,0,0,1,1.34.13A.66.66,0,0,1,50.36,8.14Z" transform="translate(-12.42 -4.71)"/><path class="cls-24" d="M48.34,7.47a.67.67,0,0,1-.68.66A.62.62,0,0,1,47,7.44a.61.61,0,0,1,.66-.65C48.07,6.78,48.29,7.05,48.34,7.47Z" transform="translate(-12.42 -4.71)"/><path class="cls-24" d="M45.58,7.43a.66.66,0,0,1-.62.7.63.63,0,0,1-.73-.64.62.62,0,0,1,.67-.7A.65.65,0,0,1,45.58,7.43Z" transform="translate(-12.42 -4.71)"/><path class="cls-25" d="M77.92,36.64c-1.84-.62-3.75-.32-5.63-.38-.33-.39-.21-.84-.15-1.28a.42.42,0,0,1,.18-.28c1-.43,1.87-1.09,2.86-1.54.74,0,1.5-.24,2.19.19A19.32,19.32,0,0,1,77.92,36.64Z" transform="translate(-12.42 -4.71)"/><path class="cls-13" d="M77.37,33.35l-2.33,0c0-.07,0-.15,0-.2a15.72,15.72,0,0,0,1.82-2.62,6.49,6.49,0,0,1,1.46-.19c0,.66,0,1.32,0,2C78.34,33.3,78.34,33.3,77.37,33.35Z" transform="translate(-12.42 -4.71)"/><path class="cls-26" d="M78.32,30.3a2.56,2.56,0,0,1-1.48.3c-.12-.17,0-.35,0-.52a9.13,9.13,0,0,0,.35-2.55.79.79,0,0,1,.2-.69,1.74,1.74,0,0,1,.94.29A2.33,2.33,0,0,1,78.32,30.3Z" transform="translate(-12.42 -4.71)"/><path class="cls-27" d="M42.28,57l13.07,0h5.91a1.35,1.35,0,0,1,1.52,1.52q0,4,0,8.05A1.3,1.3,0,0,1,61.47,68L42.28,68a1.23,1.23,0,0,1-1.13-1.25c-.08-1.46,0-2.92,0-4.37a.75.75,0,0,1,.16-.45,1.85,1.85,0,0,1,1.13-.17c3.67,0,7.34,0,11,0a7.67,7.67,0,0,0,.83,0c.28,0,.56-.11.62-.43s-.17-.45-.41-.55a2.2,2.2,0,0,0-1-.11H42.41c-1.23,0-1.3-.08-1.31-1.34,0-.27,0-.55,0-.82A1.34,1.34,0,0,1,42.28,57Z" transform="translate(-12.42 -4.71)"/><path class="cls-18" d="M41.32,62c0,1.42,0,2.84,0,4.25a1.7,1.7,0,0,0,1,1.78c-2.79,0-5.59,0-8.38,0a1.32,1.32,0,0,1-1.38-1.4q0-4.1,0-8.18A1.33,1.33,0,0,1,33.9,57c2.79,0,5.59,0,8.38,0a1.7,1.7,0,0,0-1,1.78c0,1.64,0,1.64,1.66,1.64H53.75c.26,0,.55-.09.79.11-.32.32-.73.23-1.11.23H41.7a6.26,6.26,0,0,0-.75,0c-.24,0-.47.09-.52.36s.14.42.35.52S41.19,61.78,41.32,62Z" transform="translate(-12.42 -4.71)"/><path class="cls-10" d="M33.06,13.64,31.85,15.7a.49.49,0,0,1-.48.31c-.25,0-.33-.21-.39-.42s-.2-.65-.3-1l-.27-1.1A10.23,10.23,0,0,1,33.06,13.64Z" transform="translate(-12.42 -4.71)"/><path class="cls-28" d="M24.55,10.65c0,.44-.2.72-.6.75a.61.61,0,0,1-.7-.66.6.6,0,0,1,.63-.67A.59.59,0,0,1,24.55,10.65Z" transform="translate(-12.42 -4.71)"/><path class="cls-28" d="M27.3,10.65c0,.44-.2.72-.59.75a.62.62,0,0,1-.71-.66.6.6,0,0,1,.63-.67A.59.59,0,0,1,27.3,10.65Z" transform="translate(-12.42 -4.71)"/><path class="cls-28" d="M30.05,10.74c0,.4-.25.67-.65.67a.63.63,0,0,1-.65-.73.61.61,0,0,1,.69-.61A.59.59,0,0,1,30.05,10.74Z" transform="translate(-12.42 -4.71)"/><path class="cls-8" d="M18.75,41l-2.87,0a1,1,0,0,1-.23-.82q0-2.33,0-4.65a1,1,0,0,1,.24-.82l1.76,0a3.62,3.62,0,0,1,4,.87,2.82,2.82,0,0,1,.23.46A25.68,25.68,0,0,1,22,40.65a.5.5,0,0,1-.45.53A4.52,4.52,0,0,1,19.09,41Z" transform="translate(-12.42 -4.71)"/><path class="cls-29" d="M25.47,38.85H24.41a1.07,1.07,0,0,1-.77-.3,4.38,4.38,0,0,0-.74-2.29,1.88,1.88,0,0,1-.06-.53c.11-.59-.17-.88-.72-1.11A6.7,6.7,0,0,1,19,32a3.69,3.69,0,0,1-.46-1.13l0-.24a1,1,0,0,1-.41-.52,5.28,5.28,0,0,1-.14-3.24l.15-2.39c0-.52.2-.86.83-.78a8.39,8.39,0,0,0,1.23,0c.21.36,0,.72,0,1.07a16.49,16.49,0,0,0,.15,4.86,6.55,6.55,0,0,0,3.66,4.56,4.33,4.33,0,0,0,1.78.48c1.17,0,1-.15,1.15,1v0A2.27,2.27,0,0,1,25.47,38.85Z" transform="translate(-12.42 -4.71)"/><path class="cls-30" d="M15.89,34.7q0,3.15,0,6.29c0,2.53,0,5,0,7.58H14.44c0-.69.05-1.38.05-2.06V34.68c0-.16,0-.32,0-.48,0-.43.23-.71.66-.72a.65.65,0,0,1,.71.67C15.88,34.34,15.88,34.52,15.89,34.7Z" transform="translate(-12.42 -4.71)"/><path class="cls-25" d="M18.5,30.83a7.21,7.21,0,0,0,4.21,3.84c.55.19.23.65.3,1a1.45,1.45,0,0,1-1.48,0,2.18,2.18,0,0,0-2-1c-.61,0-1.22,0-1.84,0C17.79,33.36,18.27,32.13,18.5,30.83Z" transform="translate(-12.42 -4.71)"/><path class="cls-31" d="M17,27.12a1.27,1.27,0,0,1,.81-.26c.06.47-.22.87-.24,1.33a5.62,5.62,0,0,0,.37,2.37,1.44,1.44,0,0,1-1.52-1.42A2.18,2.18,0,0,1,17,27.12Z" transform="translate(-12.42 -4.71)"/><path class="cls-32" d="M17.92,30.56a3.4,3.4,0,0,1-.13-3.7.28.28,0,0,1,.13,0,8.62,8.62,0,0,0,.55,3.76Z" transform="translate(-12.42 -4.71)"/><path class="cls-33" d="M26.86,35.65c0-.84-.6-.82-1.25-.82a5.28,5.28,0,0,1-3.41-1.58,6.94,6.94,0,0,1-2.34-5.54,14.27,14.27,0,0,1,.27-4,11.87,11.87,0,0,0,2.38-.17,4.91,4.91,0,0,0,3-2c.29-.18.42.06.55.23a4.5,4.5,0,0,0,3.89,1.77c.3,0,.59,0,.89,0,.92,0,1.11.2,1.18,1.12A2.81,2.81,0,0,1,32,25c0,1.19,0,2.38,0,3.56a3.37,3.37,0,0,1-.48,2,11.17,11.17,0,0,1-1.74,2.53,5.55,5.55,0,0,1-2.23,1.43C26.89,34.71,26.79,35.08,26.86,35.65Z" transform="translate(-12.42 -4.71)"/><path class="cls-12" d="M31.84,24.92c0-.14,0-.28,0-.42,0-.61-.23-.88-.91-.84A7,7,0,0,1,28,23.41a4,4,0,0,1-2.06-1.53c-.1-.16-.16-.41-.43-.38.1-.62-.29-1.15-.3-1.77a3.59,3.59,0,0,1,.73-2.4,3.54,3.54,0,0,1,2.18-.67,5.17,5.17,0,0,1,4.58,3.77,4.64,4.64,0,0,1,.22,1.28c0,1.8,0,3.61,0,5.42-.9,0-1-.11-1-.93A5,5,0,0,0,31.84,24.92Z" transform="translate(-12.42 -4.71)"/><path class="cls-9" d="M64.59,14.62c-.3.48-.6,1-.91,1.44-.11.18-.24.35-.48.31s-.33-.23-.39-.43c-.16-.57-.32-1.14-.47-1.72a.5.5,0,0,0-.57-.43c-1.48,0-1.8-.36-1.89-1.79,0-.75,0-1.49,0-2.24A1.28,1.28,0,0,1,61,8.39h3.34l.12.12c-.76.52-.7,1.25-.68,2,0,.55,0,1.1,0,1.65,0,1,.26,1.35,1.29,1.65Z" transform="translate(-12.42 -4.71)"/><path class="cls-34" d="M72.84,11.1a.6.6,0,0,1-.65.62.64.64,0,0,1-.71-.66.66.66,0,0,1,.69-.69C72.6,10.37,72.8,10.67,72.84,11.1Z" transform="translate(-12.42 -4.71)"/><path class="cls-34" d="M70.08,11.09a.59.59,0,0,1-.64.63.63.63,0,0,1-.71-.66.64.64,0,0,1,.68-.69C69.84,10.37,70.05,10.66,70.08,11.09Z" transform="translate(-12.42 -4.71)"/><path class="cls-34" d="M67.33,11.05c0,.43-.22.67-.64.67a.64.64,0,0,1-.72-.65.66.66,0,0,1,.69-.7C67.09,10.36,67.29,10.67,67.33,11.05Z" transform="translate(-12.42 -4.71)"/><path class="cls-35" d="M77.38,26.84a9.07,9.07,0,0,1-.54,3.76A7.08,7.08,0,0,1,75,33.31a9.38,9.38,0,0,1-2.77,1.53,2.58,2.58,0,0,1-2.19,0,7.15,7.15,0,0,1-5-6.59,17.07,17.07,0,0,1,.12-3.91,1.36,1.36,0,0,1,.26-.69c.57-.32,1.2-.15,1.8-.24a5.15,5.15,0,0,0,3.3-1.73.5.5,0,0,1,.34-.2c.24-.06.31.13.41.28A4.29,4.29,0,0,0,75,23.67a11.53,11.53,0,0,0,1.44,0c.57-.05.72.2.82.72C77.41,25.2,77.31,26,77.38,26.84Z" transform="translate(-12.42 -4.71)"/><path class="cls-7" d="M70.91,21.51a5,5,0,0,1-4.21,2.16l-1.16,0a1.38,1.38,0,0,1-1,.2c-.59,0-.82.26-.82.81s0,.95,0,1.43a1.09,1.09,0,0,1-.2.7,1.43,1.43,0,0,1-1.07.29c0-1.51,0-3,0-4.52a6.07,6.07,0,0,1,4.94-5.83,14.66,14.66,0,0,1,2.73-.08,1.56,1.56,0,0,1,1.3.63A3.65,3.65,0,0,0,70.9,21,.63.63,0,0,1,70.91,21.51Z" transform="translate(-12.42 -4.71)"/><path class="cls-29" d="M54.25,30.56a8.37,8.37,0,0,1-2.56,3.22,5.27,5.27,0,0,1-1.38.74.88.88,0,0,0-.74,1.14c-.37-.63-1-.53-1.62-.66a6.73,6.73,0,0,1-5.18-4.72,13.62,13.62,0,0,1-.21-6.19.72.72,0,0,1,.22-.42,5.31,5.31,0,0,1,1.82-.25,5,5,0,0,0,3.12-1.59c.18-.2.36-.43.68-.41a.75.75,0,0,1,.43.33A4.43,4.43,0,0,0,52.6,23.5c.32,0,.64,0,1,0,.89,0,1,.14,1.19,1a12.87,12.87,0,0,1,.11,2.4,11.56,11.56,0,0,1-.28,2.93A1.35,1.35,0,0,1,54.25,30.56Z" transform="translate(-12.42 -4.71)"/><path class="cls-36" d="M48.33,21.42a5.48,5.48,0,0,1-5,2.23,4.89,4.89,0,0,0-.54,0,.89.89,0,0,1-.7.2c-1.07.05-1.07.05-1.22,1.14-.21.56,0,1.17-.22,1.73a.52.52,0,0,1-.14.16c-.27.11-.53.31-.86.2a35.77,35.77,0,0,1,.11-5.48,5.92,5.92,0,0,1,5.54-4.94c.64,0,1.29,0,1.93,0a1.65,1.65,0,0,1,1.37.65.55.55,0,0,1-.12.51,3.57,3.57,0,0,0-.24,2.86C48.35,20.93,48.49,21.17,48.33,21.42Z" transform="translate(-12.42 -4.71)"/><path class="cls-37" d="M48.33,21.42a3.88,3.88,0,0,1,.31-4.09,4.82,4.82,0,0,1,7,4.31c.06,1.83,0,3.66,0,5.49a1,1,0,0,1-.93-.31,21.28,21.28,0,0,0-.14-2.52c-.09-.49-.26-.73-.79-.67s-.82,0-1.23,0A4.4,4.4,0,0,1,48.33,21.42Z" transform="translate(-12.42 -4.71)"/><path class="cls-38" d="M39.39,41l-1.77,0a1,1,0,0,1-.23-.83c0-1.55,0-3.09,0-4.64a1,1,0,0,1,.23-.82c1.21,0,2.41,0,3.61,0a2.24,2.24,0,0,1,2,1c.15.16.63-.13.54.38a25,25,0,0,0-.07,3.57c0,1.61,0,1.61-1.6,1.61a5.09,5.09,0,0,1-1.23-.07C40.43,40.78,39.91,41,39.39,41Z" transform="translate(-12.42 -4.71)"/><path class="cls-39" d="M40.76,25a.19.19,0,0,1,0-.07c0-1.31,0-1.31,1.34-1.31.25,0,.5,0,.75,0a14.87,14.87,0,0,0,0,6.16,6.67,6.67,0,0,0,5.58,5.05l.06,0c.68-.22,1,.06,1.09.75h0c.54,1.28.08,2.43-1.33,3.34a4.82,4.82,0,0,1-1.2,0,2.58,2.58,0,0,1-1.51-2.69,1,1,0,0,1,.18-.64c.15-.65-.1-1-.73-1.2a6.51,6.51,0,0,1-3.82-3.88,2.82,2.82,0,0,1-.6-2.18C40.56,27.28,40.72,26.16,40.76,25Z" transform="translate(-12.42 -4.71)"/><path class="cls-30" d="M37.62,34.7V41c0,2.31,0,4.62,0,6.94,0,.65.44.49.72.65H35.67c.45,0,.57-.21.57-.67,0-4.41,0-8.82,0-13.23a5,5,0,0,1,0-.55.68.68,0,0,1,1.35,0A3.12,3.12,0,0,1,37.62,34.7Z" transform="translate(-12.42 -4.71)"/><path class="cls-30" d="M63.75,48.47a1.7,1.7,0,0,1-1.38,0c0-3.82,0-7.63,0-11.45,0-.86,0-1.72,0-2.57a1.16,1.16,0,0,1,.27-.88c.53-.37,1-.24,1.22.34a2.67,2.67,0,0,1,.09.89c0,1.82,0,3.65,0,5.48a1,1,0,0,1-.19.71Z" transform="translate(-12.42 -4.71)"/><path class="cls-18" d="M48.19,38.92c0-.07.08-.18.14-.21a2.13,2.13,0,0,0,1.24-2.29c0-.25,0-.51,0-.76.66,0,1.33,0,2,0s.73.15.63.66a36.85,36.85,0,0,0-2.11,3.44,1.62,1.62,0,0,0-.1.18c-.57,1-.57,1-1.24.09A1.07,1.07,0,0,1,48.19,38.92Z" transform="translate(-12.42 -4.71)"/><path class="cls-18" d="M25.47,38.85c1.39-.65,1.47-1.88,1.4-3.18H29c.41,0,.61.13.5.56q-1.2,2-2.38,4c-.37.61-.51.62-.87,0C26,39.78,25.71,39.31,25.47,38.85Z" transform="translate(-12.42 -4.71)"/><path class="cls-40" d="M62.38,33.3l0-3c.33-.1.63.15,1,.09a1.41,1.41,0,0,1,.41.07c.72.79,1.16,1.78,1.86,2.58.15.17.09.34-.14.42A9.29,9.29,0,0,1,62.38,33.3Z" transform="translate(-12.42 -4.71)"/><path class="cls-29" d="M31.84,24.92a.91.91,0,0,1,.1.78c-.17.84.22,1.25,1,1.43a2.38,2.38,0,0,1,.56,2c-.1.95-.8,1.45-1.92,1.39A28.8,28.8,0,0,0,31.84,24.92Z" transform="translate(-12.42 -4.71)"/><path class="cls-39" d="M54.68,26.82a1.94,1.94,0,0,1,.93.31,2.31,2.31,0,0,1,.55,2.14c-.11.9-.82,1.35-1.91,1.29A18.1,18.1,0,0,0,54.68,26.82Z" transform="translate(-12.42 -4.71)"/><path class="cls-41" d="M45.72,35.67c0,.31,0,.63,0,.95a2,2,0,0,0,1.12,2c.12.06.24.13.26.28a1.71,1.71,0,0,1-.7,1.38c-.3.38-.6.53-.92,0-.28-.18-.22-.48-.23-.74,0-.52,0-1,0-1.57a1.75,1.75,0,0,0-1.08-1.8.68.68,0,0,1-.37-.28c-.14-.17-.43,0-.54-.25Z" transform="translate(-12.42 -4.71)"/><path class="cls-42" d="M62.38,33.3h3.31a.31.31,0,0,1,.39,0,13,13,0,0,0,1.64,1c.18.1.56.24.11.51a28.17,28.17,0,0,1-3.56.06.69.69,0,0,1-.5-.2c-.06-1.16-.27-1.37-1.13-1.13Z" transform="translate(-12.42 -4.71)"/><path class="cls-43" d="M63.34,30.57a1.36,1.36,0,0,1-.94-.26,2.33,2.33,0,0,1,0-3.19,1.61,1.61,0,0,1,.9-.29c.61.24.32.72.29,1.13-.32.11-.32.11-.5-.41a4,4,0,0,0,.16,2.64A.4.4,0,0,1,63.34,30.57Z" transform="translate(-12.42 -4.71)"/><path class="cls-44" d="M39.69,27.11a1.28,1.28,0,0,1,.8-.26c.1.54-.24,1-.25,1.53a6.66,6.66,0,0,0,.38,2.18,1.46,1.46,0,0,1-1.51-1.5A2.16,2.16,0,0,1,39.69,27.11Z" transform="translate(-12.42 -4.71)"/><path class="cls-29" d="M40.62,30.56a3.42,3.42,0,0,1-.13-3.71h0c.31,0,.19.24.21.4a4.83,4.83,0,0,0,.07,1.26,4.8,4.8,0,0,0,.4,2.08Z" transform="translate(-12.42 -4.71)"/><path class="cls-16" d="M63.77,34.7h4.3c.58-.22.85.27,1.19.56a1.61,1.61,0,0,1,.46.74,5.11,5.11,0,0,1,.16,1.83c0,.86,0,1.73,0,2.6,0,.52-.24.83-.79.81-.71,0-1.46.2-2.14-.21l-3.17,0Z" transform="translate(-12.42 -4.71)"/><path class="cls-26" d="M69.52,35.85a2.37,2.37,0,0,0-1.45-1.16,14.16,14.16,0,0,1-2.38-1.38,14.8,14.8,0,0,1-1.95-2.76,2.61,2.61,0,0,1-.27-2.45c-.07-.42.18-.89-.17-1.27.27-.37.11-.8.14-1.2s0-.78,0-1.17c0-.56.23-.9.89-.8a7.59,7.59,0,0,0,1.17,0c-.4,2.65-.69,5.31.67,7.8a6.39,6.39,0,0,0,5,3.41,6.58,6.58,0,0,0,1.08-.06l0,1.42a2.51,2.51,0,0,1-.63,2c-.27-.08-.23-.32-.24-.51a1.69,1.69,0,0,0-1.36-1.66A1.25,1.25,0,0,1,69.52,35.85Z" transform="translate(-12.42 -4.71)"/><path class="cls-45" d="M69.52,35.85c1.56.2,1.94.63,2.14,2.44,0,1.07-.06,2.15,0,3.22,0,.54-.17.66-.66.63-.69,0-1.37,0-2.06,0a2,2,0,0,1-2-1.12H69.2c.24,0,.47,0,.46-.35A32.45,32.45,0,0,0,69.52,35.85Z" transform="translate(-12.42 -4.71)"/><path class="cls-36" d="M23,36.26a2.65,2.65,0,0,1,.74,2.27,1.72,1.72,0,0,1,0,1.44c0,.55-.05,1.1,0,1.65s-.14.54-.55.52c-.75,0-1.51,0-2.27,0A1.89,1.89,0,0,1,19.09,41l2.18,0c.22,0,.51,0,.5-.3a35.42,35.42,0,0,0-.11-4.83A1.07,1.07,0,0,1,23,36.26Z" transform="translate(-12.42 -4.71)"/><path class="cls-46" d="M23.75,40V38.53a1,1,0,0,1,.66.31A4.58,4.58,0,0,1,23.75,40Z" transform="translate(-12.42 -4.71)"/><path class="cls-47" d="M48.6,48.89a5.62,5.62,0,0,1-.37-1.66c-.08-.67-.37-.92-1-.84a4.71,4.71,0,0,1-.75,0V42.15a1,1,0,0,1,.13-.72,2.42,2.42,0,0,1,2,0,.77.77,0,0,1,.13.51q0,3.24,0,6.48A2.6,2.6,0,0,1,48.6,48.89Z" transform="translate(-12.42 -4.71)"/><path class="cls-48" d="M48.57,41.43h-2c-.06-.38-.11-.75-.17-1.13l.7-1.37a1.31,1.31,0,0,1,1.08,0c.18.37.36.74.55,1.11A7.44,7.44,0,0,1,48.57,41.43Z" transform="translate(-12.42 -4.71)"/><path class="cls-49" d="M43.81,35.93a1.82,1.82,0,0,1,1.65,1.86c0,.84,0,1.68,0,2.53,0,.45,0,.91,0,1.37s-.12.46-.47.45c-.8,0-1.6,0-2.4,0a1.87,1.87,0,0,1-1.7-1,4.66,4.66,0,0,1,2-.13c.48,0,.63-.15.62-.63,0-1.38,0-2.77-.08-4.15C43.44,35.89,43.65,36,43.81,35.93Z" transform="translate(-12.42 -4.71)"/><path class="cls-12" d="M41.32,62c-.35,0-.73.08-1-.25a.62.62,0,0,1-.16-.69c.1-.24.24-.44.54-.44h.62l13.24,0a.64.64,0,0,1,.65.79c-.08.48-.47.61-.94.6H41.32Z" transform="translate(-12.42 -4.71)"/><path class="cls-12" d="M47.66,64.69c-1.4,0-2.8,0-4.19,0-.54,0-1-.1-1-.73s.49-.66,1-.66h8.52c.49,0,.92.08.93.65s-.42.74-.94.73Z" transform="translate(-12.42 -4.71)"/><path class="cls-50" d="M60.27,65.25a.68.68,0,0,1,.67.69.63.63,0,0,1-.71.67.61.61,0,0,1-.62-.67C59.61,65.46,59.92,65.33,60.27,65.25Z" transform="translate(-12.42 -4.71)"/><path class="cls-50" d="M60.31,58.37a.67.67,0,0,1,.63.7.64.64,0,0,1-.72.66.62.62,0,0,1-.61-.69C59.62,58.57,59.92,58.43,60.31,58.37Z" transform="translate(-12.42 -4.71)"/><path class="cls-51" d="M35.68,59.1c0,.41-.27.61-.67.63a.63.63,0,0,1-.65-.65.66.66,0,1,1,1.32,0Z" transform="translate(-12.42 -4.71)"/><path class="cls-51" d="M35.68,66c0,.42-.27.62-.67.64a.67.67,0,1,1,.67-.64Z" transform="translate(-12.42 -4.71)"/><path class="cls-52" d="M23,36.26a2.56,2.56,0,0,0-1.35-.37l-.13-.21,1.48,0Z" transform="translate(-12.42 -4.71)"/><path class="cls-44" d="M25.09,31.69a2.81,2.81,0,0,1-2-.71.46.46,0,0,1-.11-.67.48.48,0,0,1,.68-.07,1.84,1.84,0,0,0,2.54,0,.45.45,0,0,1,.67.07.48.48,0,0,1-.16.72A2.43,2.43,0,0,1,25.09,31.69Z" transform="translate(-12.42 -4.71)"/><path class="cls-53" d="M28.69,26c.37.21.1.43,0,.6a.85.85,0,0,1-.9.35A1,1,0,0,1,27,25.75a.89.89,0,0,1,1.23-.56A1,1,0,0,0,28.69,26Z" transform="translate(-12.42 -4.71)"/><path class="cls-54" d="M22.87,26c-.13.74-.54,1.11-1.11,1A1,1,0,0,1,21,25.83a.87.87,0,0,1,1.23-.64C22.2,25.65,22.52,25.81,22.87,26Z" transform="translate(-12.42 -4.71)"/><path class="cls-55" d="M24.87,28.92a2.84,2.84,0,0,1-.63-.25c-.21-.15-.5-.33-.33-.66a.46.46,0,0,1,.74-.19.56.56,0,0,0,.64,0,.39.39,0,0,1,.59.12.45.45,0,0,1-.13.66A1.76,1.76,0,0,1,24.87,28.92Z" transform="translate(-12.42 -4.71)"/><path class="cls-56" d="M28.69,26c-.6,0-.73-.29-.43-.8a.49.49,0,0,1,.74.17C29.2,25.71,28.88,25.82,28.69,26Z" transform="translate(-12.42 -4.71)"/><path class="cls-57" d="M22.87,26a.55.55,0,0,1-.66-.1.45.45,0,1,1,.68-.58C23.1,25.51,23,25.73,22.87,26Z" transform="translate(-12.42 -4.71)"/><path class="cls-58" d="M70.39,31.68a2.52,2.52,0,0,1-1.78-.62c-.24-.19-.42-.46-.16-.76s.5-.17.74,0a1.74,1.74,0,0,0,2.36,0,.51.51,0,0,1,.79.06c.2.28,0,.53-.21.71A2.34,2.34,0,0,1,70.39,31.68Z" transform="translate(-12.42 -4.71)"/><path class="cls-59" d="M74.32,25.94a.93.93,0,0,1-.87,1,.89.89,0,0,1-1-.68.86.86,0,0,1,.41-1.05.71.71,0,0,1,.82-.07A.74.74,0,0,0,74.32,25.94Z" transform="translate(-12.42 -4.71)"/><path class="cls-54" d="M68.25,25.94c0,.63-.37,1-.91,1a1,1,0,0,1-.93-.93,1,1,0,0,1,1-1c.12,0,.23,0,.34,0C67.69,25.52,67.78,25.85,68.25,25.94Z" transform="translate(-12.42 -4.71)"/><path class="cls-60" d="M70.41,28.92a1.54,1.54,0,0,1-.93-.42.43.43,0,0,1,0-.62.38.38,0,0,1,.54-.11c.2.11.39.22.63.06s.64-.17.78.21-.17.53-.41.68A2.42,2.42,0,0,1,70.41,28.92Z" transform="translate(-12.42 -4.71)"/><path class="cls-61" d="M68.25,25.94a.45.45,0,0,1-.65-.15c-.18-.26,0-.47.1-.68.25-.05.52-.09.67.17A.47.47,0,0,1,68.25,25.94Z" transform="translate(-12.42 -4.71)"/><path class="cls-62" d="M74.32,25.94a.5.5,0,0,1-.67-.11c-.21-.24-.11-.45,0-.67a.49.49,0,0,1,.66.11C74.56,25.51,74.44,25.72,74.32,25.94Z" transform="translate(-12.42 -4.71)"/><path class="cls-63" d="M47.56,31.69a2.52,2.52,0,0,1-1.67-.64c-.24-.17-.4-.39-.19-.69a.45.45,0,0,1,.71-.09,1.81,1.81,0,0,0,2.48,0,.46.46,0,0,1,.68,0,.46.46,0,0,1-.11.71A2.7,2.7,0,0,1,47.56,31.69Z" transform="translate(-12.42 -4.71)"/><path class="cls-64" d="M51.62,25.94c-.18.87-.72,1.25-1.35.93a.86.86,0,0,1-.48-1.19c.22-.48.59-.82,1.18-.48A.75.75,0,0,0,51.62,25.94Z" transform="translate(-12.42 -4.71)"/><path class="cls-65" d="M45.55,25.93a.85.85,0,0,1-.7,1,.86.86,0,0,1-1-.4.82.82,0,0,1,0-1.07c.27-.32.6-.56,1-.26C44.92,25.63,45.18,25.83,45.55,25.93Z" transform="translate(-12.42 -4.71)"/><path class="cls-66" d="M47.63,28.91a1.57,1.57,0,0,1-.85-.4.44.44,0,0,1-.06-.62.37.37,0,0,1,.54-.12.65.65,0,0,0,.76,0,.38.38,0,0,1,.58.15.44.44,0,0,1-.11.61A1.56,1.56,0,0,1,47.63,28.91Z" transform="translate(-12.42 -4.71)"/><path class="cls-67" d="M45.55,25.93a.46.46,0,0,1-.65-.11.47.47,0,0,1,0-.62c.23-.13.47-.23.67,0A.49.49,0,0,1,45.55,25.93Z" transform="translate(-12.42 -4.71)"/><path class="cls-68" d="M51.62,25.94c-.24.09-.47.14-.67-.09a.45.45,0,0,1,0-.65c.24-.14.45-.18.66.06S51.73,25.71,51.62,25.94Z" transform="translate(-12.42 -4.71)"/><path class="cls-44" d="M40.77,28.51c-.26-.29-.09-.64-.13-1s.08-.5-.15-.69c.33-.32.13-.72.17-1.09a2.26,2.26,0,0,1,.1-.73C40.76,26.19,40.76,27.35,40.77,28.51Z" transform="translate(-12.42 -4.71)"/><path class="cls-69" d="M63.47,28.1a10.64,10.64,0,0,0,.27,2.45l-.4,0c-.75-.95-.81-2.8-.08-3.48C63.48,27.4,63.18,27.82,63.47,28.1Z" transform="translate(-12.42 -4.71)"/><text class="cls-70" transform="translate(76.87 52.56) scale(1.04 1)">DuRoom</text></svg>